<mxfile host="app.diagrams.net" agent="Mozilla/5.0 (Windows NT 10.0; Win64; x64) AppleWebKit/537.36 (KHTML, like Gecko) Chrome/129.0.0.0 Safari/537.36" version="24.7.16">
  <diagram id="C5RBs43oDa-KdzZeNtuy" name="Page-1">
    <mxGraphModel dx="1877" dy="557" grid="1" gridSize="10" guides="1" tooltips="1" connect="1" arrows="1" fold="1" page="1" pageScale="1" pageWidth="827" pageHeight="1169" math="0" shadow="0">
      <root>
        <mxCell id="WIyWlLk6GJQsqaUBKTNV-0" />
        <mxCell id="WIyWlLk6GJQsqaUBKTNV-1" parent="WIyWlLk6GJQsqaUBKTNV-0" />
        <mxCell id="Z0Lva0Mk29yvO0osSEcG-0" value="user" style="swimlane;fontStyle=0;childLayout=stackLayout;horizontal=1;startSize=26;fillColor=#f8cecc;horizontalStack=0;resizeParent=1;resizeParentMax=0;resizeLast=0;collapsible=1;marginBottom=0;html=1;strokeColor=#b85450;" parent="WIyWlLk6GJQsqaUBKTNV-1" vertex="1">
          <mxGeometry x="-827" y="40" width="140" height="130" as="geometry" />
        </mxCell>
        <mxCell id="Z0Lva0Mk29yvO0osSEcG-1" value="user" style="text;align=left;verticalAlign=top;spacingLeft=4;spacingRight=4;overflow=hidden;rotatable=0;points=[[0,0.5],[1,0.5]];portConstraint=eastwest;whiteSpace=wrap;html=1;" parent="Z0Lva0Mk29yvO0osSEcG-0" vertex="1">
          <mxGeometry y="26" width="140" height="26" as="geometry" />
        </mxCell>
        <mxCell id="lt9HKoD3IUiAIHY5lhu4-0" value="email" style="text;align=left;verticalAlign=top;spacingLeft=4;spacingRight=4;overflow=hidden;rotatable=0;points=[[0,0.5],[1,0.5]];portConstraint=eastwest;whiteSpace=wrap;html=1;" vertex="1" parent="Z0Lva0Mk29yvO0osSEcG-0">
          <mxGeometry y="52" width="140" height="26" as="geometry" />
        </mxCell>
        <mxCell id="lt9HKoD3IUiAIHY5lhu4-17" value="profile image" style="text;align=left;verticalAlign=top;spacingLeft=4;spacingRight=4;overflow=hidden;rotatable=0;points=[[0,0.5],[1,0.5]];portConstraint=eastwest;whiteSpace=wrap;html=1;" vertex="1" parent="Z0Lva0Mk29yvO0osSEcG-0">
          <mxGeometry y="78" width="140" height="26" as="geometry" />
        </mxCell>
        <mxCell id="Z0Lva0Mk29yvO0osSEcG-2" value="password" style="text;strokeColor=none;fillColor=none;align=left;verticalAlign=top;spacingLeft=4;spacingRight=4;overflow=hidden;rotatable=0;points=[[0,0.5],[1,0.5]];portConstraint=eastwest;whiteSpace=wrap;html=1;" parent="Z0Lva0Mk29yvO0osSEcG-0" vertex="1">
          <mxGeometry y="104" width="140" height="26" as="geometry" />
        </mxCell>
        <mxCell id="Z0Lva0Mk29yvO0osSEcG-4" value="Anime" style="swimlane;fontStyle=0;childLayout=stackLayout;horizontal=1;startSize=26;horizontalStack=0;resizeParent=1;resizeParentMax=0;resizeLast=0;collapsible=1;marginBottom=0;align=center;fontSize=14;fillColor=#6a00ff;fontColor=#ffffff;strokeColor=#3700CC;" parent="WIyWlLk6GJQsqaUBKTNV-1" vertex="1">
          <mxGeometry x="-827" y="330" width="127" height="386" as="geometry" />
        </mxCell>
        <mxCell id="Z0Lva0Mk29yvO0osSEcG-5" value="user" style="text;strokeColor=none;fillColor=none;spacingLeft=4;spacingRight=4;overflow=hidden;rotatable=0;points=[[0,0.5],[1,0.5]];portConstraint=eastwest;fontSize=12;whiteSpace=wrap;html=1;" parent="Z0Lva0Mk29yvO0osSEcG-4" vertex="1">
          <mxGeometry y="26" width="127" height="30" as="geometry" />
        </mxCell>
        <mxCell id="Z0Lva0Mk29yvO0osSEcG-9" value="" style="edgeStyle=entityRelationEdgeStyle;fontSize=12;html=1;endArrow=ERoneToMany;rounded=0;entryX=1;entryY=0.5;entryDx=0;entryDy=0;exitX=0.997;exitY=0.146;exitDx=0;exitDy=0;exitPerimeter=0;" parent="Z0Lva0Mk29yvO0osSEcG-4" edge="1">
          <mxGeometry width="100" height="100" relative="1" as="geometry">
            <mxPoint x="140.57999999999993" y="-271.02" as="sourcePoint" />
            <mxPoint x="128" y="41" as="targetPoint" />
            <Array as="points">
              <mxPoint x="168" y="-190" />
              <mxPoint x="158" y="-190" />
            </Array>
          </mxGeometry>
        </mxCell>
        <mxCell id="Z0Lva0Mk29yvO0osSEcG-10" value="ForeignKey" style="edgeLabel;html=1;align=center;verticalAlign=middle;resizable=0;points=[];" parent="Z0Lva0Mk29yvO0osSEcG-9" vertex="1" connectable="0">
          <mxGeometry x="-0.3931" y="1" relative="1" as="geometry">
            <mxPoint as="offset" />
          </mxGeometry>
        </mxCell>
        <mxCell id="Z0Lva0Mk29yvO0osSEcG-6" value="Title" style="text;strokeColor=none;fillColor=none;spacingLeft=4;spacingRight=4;overflow=hidden;rotatable=0;points=[[0,0.5],[1,0.5]];portConstraint=eastwest;fontSize=12;whiteSpace=wrap;html=1;" parent="Z0Lva0Mk29yvO0osSEcG-4" vertex="1">
          <mxGeometry y="56" width="127" height="30" as="geometry" />
        </mxCell>
        <mxCell id="Z0Lva0Mk29yvO0osSEcG-7" value="decription" style="text;strokeColor=none;fillColor=none;spacingLeft=4;spacingRight=4;overflow=hidden;rotatable=0;points=[[0,0.5],[1,0.5]];portConstraint=eastwest;fontSize=12;whiteSpace=wrap;html=1;" parent="Z0Lva0Mk29yvO0osSEcG-4" vertex="1">
          <mxGeometry y="86" width="127" height="30" as="geometry" />
        </mxCell>
        <mxCell id="Z0Lva0Mk29yvO0osSEcG-32" value="image" style="text;strokeColor=none;fillColor=none;spacingLeft=4;spacingRight=4;overflow=hidden;rotatable=0;points=[[0,0.5],[1,0.5]];portConstraint=eastwest;fontSize=12;whiteSpace=wrap;html=1;" parent="Z0Lva0Mk29yvO0osSEcG-4" vertex="1">
          <mxGeometry y="116" width="127" height="30" as="geometry" />
        </mxCell>
        <mxCell id="Z0Lva0Mk29yvO0osSEcG-12" value="type" style="text;strokeColor=none;fillColor=none;spacingLeft=4;spacingRight=4;overflow=hidden;rotatable=0;points=[[0,0.5],[1,0.5]];portConstraint=eastwest;fontSize=12;whiteSpace=wrap;html=1;" parent="Z0Lva0Mk29yvO0osSEcG-4" vertex="1">
          <mxGeometry y="146" width="127" height="30" as="geometry" />
        </mxCell>
        <mxCell id="lt9HKoD3IUiAIHY5lhu4-3" value="category" style="text;strokeColor=none;fillColor=none;spacingLeft=4;spacingRight=4;overflow=hidden;rotatable=0;points=[[0,0.5],[1,0.5]];portConstraint=eastwest;fontSize=12;whiteSpace=wrap;html=1;" vertex="1" parent="Z0Lva0Mk29yvO0osSEcG-4">
          <mxGeometry y="176" width="127" height="30" as="geometry" />
        </mxCell>
        <mxCell id="Z0Lva0Mk29yvO0osSEcG-20" value="studios" style="text;strokeColor=none;fillColor=none;spacingLeft=4;spacingRight=4;overflow=hidden;rotatable=0;points=[[0,0.5],[1,0.5]];portConstraint=eastwest;fontSize=12;whiteSpace=wrap;html=1;" parent="Z0Lva0Mk29yvO0osSEcG-4" vertex="1">
          <mxGeometry y="206" width="127" height="30" as="geometry" />
        </mxCell>
        <mxCell id="Z0Lva0Mk29yvO0osSEcG-21" value="date aried" style="text;strokeColor=none;fillColor=none;spacingLeft=4;spacingRight=4;overflow=hidden;rotatable=0;points=[[0,0.5],[1,0.5]];portConstraint=eastwest;fontSize=12;whiteSpace=wrap;html=1;" parent="Z0Lva0Mk29yvO0osSEcG-4" vertex="1">
          <mxGeometry y="236" width="127" height="30" as="geometry" />
        </mxCell>
        <mxCell id="Z0Lva0Mk29yvO0osSEcG-23" value="status" style="text;strokeColor=none;fillColor=none;spacingLeft=4;spacingRight=4;overflow=hidden;rotatable=0;points=[[0,0.5],[1,0.5]];portConstraint=eastwest;fontSize=12;whiteSpace=wrap;html=1;" parent="Z0Lva0Mk29yvO0osSEcG-4" vertex="1">
          <mxGeometry y="266" width="127" height="30" as="geometry" />
        </mxCell>
        <mxCell id="Z0Lva0Mk29yvO0osSEcG-24" value="genre" style="text;strokeColor=none;fillColor=none;spacingLeft=4;spacingRight=4;overflow=hidden;rotatable=0;points=[[0,0.5],[1,0.5]];portConstraint=eastwest;fontSize=12;whiteSpace=wrap;html=1;" parent="Z0Lva0Mk29yvO0osSEcG-4" vertex="1">
          <mxGeometry y="296" width="127" height="30" as="geometry" />
        </mxCell>
        <mxCell id="Z0Lva0Mk29yvO0osSEcG-31" value="score" style="text;strokeColor=none;fillColor=none;spacingLeft=4;spacingRight=4;overflow=hidden;rotatable=0;points=[[0,0.5],[1,0.5]];portConstraint=eastwest;fontSize=12;whiteSpace=wrap;html=1;" parent="Z0Lva0Mk29yvO0osSEcG-4" vertex="1">
          <mxGeometry y="326" width="127" height="30" as="geometry" />
        </mxCell>
        <mxCell id="lt9HKoD3IUiAIHY5lhu4-1" value="slug" style="text;strokeColor=none;fillColor=none;spacingLeft=4;spacingRight=4;overflow=hidden;rotatable=0;points=[[0,0.5],[1,0.5]];portConstraint=eastwest;fontSize=12;whiteSpace=wrap;html=1;" vertex="1" parent="Z0Lva0Mk29yvO0osSEcG-4">
          <mxGeometry y="356" width="127" height="30" as="geometry" />
        </mxCell>
        <mxCell id="Z0Lva0Mk29yvO0osSEcG-8" value="Models" style="rounded=0;whiteSpace=wrap;html=1;fillColor=#d80073;strokeColor=#A50040;fontColor=#ffffff;" parent="WIyWlLk6GJQsqaUBKTNV-1" vertex="1">
          <mxGeometry x="-460" width="210" height="60" as="geometry" />
        </mxCell>
        <mxCell id="Z0Lva0Mk29yvO0osSEcG-13" value="Anime Type" style="swimlane;fontStyle=0;childLayout=stackLayout;horizontal=1;startSize=26;horizontalStack=0;resizeParent=1;resizeParentMax=0;resizeLast=0;collapsible=1;marginBottom=0;align=center;fontSize=14;fillColor=#008a00;fontColor=#ffffff;strokeColor=#005700;" parent="WIyWlLk6GJQsqaUBKTNV-1" vertex="1">
          <mxGeometry x="-630" y="200" width="160" height="56" as="geometry" />
        </mxCell>
        <mxCell id="Z0Lva0Mk29yvO0osSEcG-14" value="name" style="text;strokeColor=none;fillColor=none;spacingLeft=4;spacingRight=4;overflow=hidden;rotatable=0;points=[[0,0.5],[1,0.5]];portConstraint=eastwest;fontSize=12;whiteSpace=wrap;html=1;" parent="Z0Lva0Mk29yvO0osSEcG-13" vertex="1">
          <mxGeometry y="26" width="160" height="30" as="geometry" />
        </mxCell>
        <mxCell id="Z0Lva0Mk29yvO0osSEcG-17" value="" style="edgeStyle=entityRelationEdgeStyle;fontSize=12;html=1;endArrow=ERoneToMany;startArrow=ERoneToMany;rounded=0;exitX=1;exitY=0.5;exitDx=0;exitDy=0;entryX=0;entryY=0.25;entryDx=0;entryDy=0;" parent="WIyWlLk6GJQsqaUBKTNV-1" source="Z0Lva0Mk29yvO0osSEcG-12" target="Z0Lva0Mk29yvO0osSEcG-13" edge="1">
          <mxGeometry width="100" height="100" relative="1" as="geometry">
            <mxPoint x="-480" y="340" as="sourcePoint" />
            <mxPoint x="-380" y="240" as="targetPoint" />
          </mxGeometry>
        </mxCell>
        <mxCell id="Z0Lva0Mk29yvO0osSEcG-18" value="Many To Many" style="edgeLabel;html=1;align=center;verticalAlign=middle;resizable=0;points=[];" parent="Z0Lva0Mk29yvO0osSEcG-17" vertex="1" connectable="0">
          <mxGeometry x="0.3795" relative="1" as="geometry">
            <mxPoint as="offset" />
          </mxGeometry>
        </mxCell>
        <mxCell id="Z0Lva0Mk29yvO0osSEcG-25" value="Anime Genre" style="swimlane;fontStyle=0;childLayout=stackLayout;horizontal=1;startSize=26;horizontalStack=0;resizeParent=1;resizeParentMax=0;resizeLast=0;collapsible=1;marginBottom=0;align=center;fontSize=14;fillColor=#008a00;fontColor=#ffffff;strokeColor=#005700;" parent="WIyWlLk6GJQsqaUBKTNV-1" vertex="1">
          <mxGeometry x="-460" y="200" width="160" height="56" as="geometry" />
        </mxCell>
        <mxCell id="Z0Lva0Mk29yvO0osSEcG-26" value="name" style="text;strokeColor=none;fillColor=none;spacingLeft=4;spacingRight=4;overflow=hidden;rotatable=0;points=[[0,0.5],[1,0.5]];portConstraint=eastwest;fontSize=12;whiteSpace=wrap;html=1;" parent="Z0Lva0Mk29yvO0osSEcG-25" vertex="1">
          <mxGeometry y="26" width="160" height="30" as="geometry" />
        </mxCell>
        <mxCell id="Z0Lva0Mk29yvO0osSEcG-29" value="" style="edgeStyle=entityRelationEdgeStyle;fontSize=12;html=1;endArrow=ERoneToMany;startArrow=ERoneToMany;rounded=0;exitX=1;exitY=0.5;exitDx=0;exitDy=0;entryX=0;entryY=0.5;entryDx=0;entryDy=0;" parent="WIyWlLk6GJQsqaUBKTNV-1" target="Z0Lva0Mk29yvO0osSEcG-26" edge="1" source="Z0Lva0Mk29yvO0osSEcG-24">
          <mxGeometry width="100" height="100" relative="1" as="geometry">
            <mxPoint x="-667" y="585" as="sourcePoint" />
            <mxPoint x="-300" y="249" as="targetPoint" />
          </mxGeometry>
        </mxCell>
        <mxCell id="Z0Lva0Mk29yvO0osSEcG-30" value="Many To Many" style="edgeLabel;html=1;align=center;verticalAlign=middle;resizable=0;points=[];" parent="Z0Lva0Mk29yvO0osSEcG-29" vertex="1" connectable="0">
          <mxGeometry x="0.3795" relative="1" as="geometry">
            <mxPoint as="offset" />
          </mxGeometry>
        </mxCell>
        <mxCell id="Z0Lva0Mk29yvO0osSEcG-33" value="Episode" style="swimlane;fontStyle=0;childLayout=stackLayout;horizontal=1;startSize=26;horizontalStack=0;resizeParent=1;resizeParentMax=0;resizeLast=0;collapsible=1;marginBottom=0;align=center;fontSize=14;fillColor=#6a00ff;fontColor=#ffffff;strokeColor=#3700CC;" parent="WIyWlLk6GJQsqaUBKTNV-1" vertex="1">
          <mxGeometry x="-435" y="360" width="160" height="116" as="geometry" />
        </mxCell>
        <mxCell id="Z0Lva0Mk29yvO0osSEcG-35" value="File" style="text;strokeColor=none;fillColor=none;spacingLeft=4;spacingRight=4;overflow=hidden;rotatable=0;points=[[0,0.5],[1,0.5]];portConstraint=eastwest;fontSize=12;whiteSpace=wrap;html=1;" parent="Z0Lva0Mk29yvO0osSEcG-33" vertex="1">
          <mxGeometry y="26" width="160" height="30" as="geometry" />
        </mxCell>
        <mxCell id="Z0Lva0Mk29yvO0osSEcG-36" value="episode number" style="text;strokeColor=none;fillColor=none;spacingLeft=4;spacingRight=4;overflow=hidden;rotatable=0;points=[[0,0.5],[1,0.5]];portConstraint=eastwest;fontSize=12;whiteSpace=wrap;html=1;" parent="Z0Lva0Mk29yvO0osSEcG-33" vertex="1">
          <mxGeometry y="56" width="160" height="30" as="geometry" />
        </mxCell>
        <mxCell id="Z0Lva0Mk29yvO0osSEcG-37" value="Anime" style="text;strokeColor=none;fillColor=none;spacingLeft=4;spacingRight=4;overflow=hidden;rotatable=0;points=[[0,0.5],[1,0.5]];portConstraint=eastwest;fontSize=12;whiteSpace=wrap;html=1;" parent="Z0Lva0Mk29yvO0osSEcG-33" vertex="1">
          <mxGeometry y="86" width="160" height="30" as="geometry" />
        </mxCell>
        <mxCell id="Z0Lva0Mk29yvO0osSEcG-38" value="" style="edgeStyle=entityRelationEdgeStyle;fontSize=12;html=1;endArrow=ERoneToMany;rounded=0;entryX=0;entryY=0.5;entryDx=0;entryDy=0;exitX=0.997;exitY=0.044;exitDx=0;exitDy=0;exitPerimeter=0;" parent="WIyWlLk6GJQsqaUBKTNV-1" source="Z0Lva0Mk29yvO0osSEcG-4" target="Z0Lva0Mk29yvO0osSEcG-37" edge="1">
          <mxGeometry width="100" height="100" relative="1" as="geometry">
            <mxPoint x="-190" y="170" as="sourcePoint" />
            <mxPoint x="-170" y="450" as="targetPoint" />
          </mxGeometry>
        </mxCell>
        <mxCell id="lt9HKoD3IUiAIHY5lhu4-12" value="ForeignKey" style="edgeLabel;html=1;align=center;verticalAlign=middle;resizable=0;points=[];" vertex="1" connectable="0" parent="Z0Lva0Mk29yvO0osSEcG-38">
          <mxGeometry x="0.002" y="1" relative="1" as="geometry">
            <mxPoint x="67" y="37" as="offset" />
          </mxGeometry>
        </mxCell>
        <mxCell id="lt9HKoD3IUiAIHY5lhu4-4" value="Category" style="swimlane;fontStyle=0;childLayout=stackLayout;horizontal=1;startSize=26;fillColor=#008a00;horizontalStack=0;resizeParent=1;resizeParentMax=0;resizeLast=0;collapsible=1;marginBottom=0;html=1;strokeColor=#005700;fontColor=#ffffff;" vertex="1" parent="WIyWlLk6GJQsqaUBKTNV-1">
          <mxGeometry x="-260" y="200" width="140" height="78" as="geometry" />
        </mxCell>
        <mxCell id="lt9HKoD3IUiAIHY5lhu4-5" value="name" style="text;strokeColor=none;fillColor=none;align=left;verticalAlign=top;spacingLeft=4;spacingRight=4;overflow=hidden;rotatable=0;points=[[0,0.5],[1,0.5]];portConstraint=eastwest;whiteSpace=wrap;html=1;" vertex="1" parent="lt9HKoD3IUiAIHY5lhu4-4">
          <mxGeometry y="26" width="140" height="26" as="geometry" />
        </mxCell>
        <mxCell id="lt9HKoD3IUiAIHY5lhu4-6" value="slug" style="text;strokeColor=none;fillColor=none;align=left;verticalAlign=top;spacingLeft=4;spacingRight=4;overflow=hidden;rotatable=0;points=[[0,0.5],[1,0.5]];portConstraint=eastwest;whiteSpace=wrap;html=1;" vertex="1" parent="lt9HKoD3IUiAIHY5lhu4-4">
          <mxGeometry y="52" width="140" height="26" as="geometry" />
        </mxCell>
        <mxCell id="lt9HKoD3IUiAIHY5lhu4-10" value="" style="edgeStyle=entityRelationEdgeStyle;fontSize=12;html=1;endArrow=ERoneToMany;startArrow=ERoneToMany;rounded=0;exitX=1;exitY=0.5;exitDx=0;exitDy=0;entryX=0;entryY=0.25;entryDx=0;entryDy=0;" edge="1" parent="WIyWlLk6GJQsqaUBKTNV-1" source="lt9HKoD3IUiAIHY5lhu4-3" target="lt9HKoD3IUiAIHY5lhu4-4">
          <mxGeometry width="100" height="100" relative="1" as="geometry">
            <mxPoint x="-170" y="587" as="sourcePoint" />
            <mxPoint x="-133" y="310" as="targetPoint" />
          </mxGeometry>
        </mxCell>
        <mxCell id="lt9HKoD3IUiAIHY5lhu4-11" value="Many To Many" style="edgeLabel;html=1;align=center;verticalAlign=middle;resizable=0;points=[];" vertex="1" connectable="0" parent="lt9HKoD3IUiAIHY5lhu4-10">
          <mxGeometry x="0.3795" relative="1" as="geometry">
            <mxPoint as="offset" />
          </mxGeometry>
        </mxCell>
        <mxCell id="lt9HKoD3IUiAIHY5lhu4-13" value="comment" style="swimlane;fontStyle=0;childLayout=stackLayout;horizontal=1;startSize=30;fillColor=#fa6800;horizontalStack=0;resizeParent=1;resizeParentMax=0;resizeLast=0;collapsible=1;marginBottom=0;html=1;strokeColor=#C73500;fontColor=#000000;" vertex="1" parent="WIyWlLk6GJQsqaUBKTNV-1">
          <mxGeometry x="-140" y="760" width="140" height="134" as="geometry" />
        </mxCell>
        <mxCell id="lt9HKoD3IUiAIHY5lhu4-14" value="user" style="text;strokeColor=none;fillColor=none;align=left;verticalAlign=top;spacingLeft=4;spacingRight=4;overflow=hidden;rotatable=0;points=[[0,0.5],[1,0.5]];portConstraint=eastwest;whiteSpace=wrap;html=1;" vertex="1" parent="lt9HKoD3IUiAIHY5lhu4-13">
          <mxGeometry y="30" width="140" height="26" as="geometry" />
        </mxCell>
        <mxCell id="lt9HKoD3IUiAIHY5lhu4-15" value="text" style="text;strokeColor=none;fillColor=none;align=left;verticalAlign=top;spacingLeft=4;spacingRight=4;overflow=hidden;rotatable=0;points=[[0,0.5],[1,0.5]];portConstraint=eastwest;whiteSpace=wrap;html=1;" vertex="1" parent="lt9HKoD3IUiAIHY5lhu4-13">
          <mxGeometry y="56" width="140" height="26" as="geometry" />
        </mxCell>
        <mxCell id="lt9HKoD3IUiAIHY5lhu4-21" value="anime" style="text;strokeColor=none;fillColor=none;align=left;verticalAlign=top;spacingLeft=4;spacingRight=4;overflow=hidden;rotatable=0;points=[[0,0.5],[1,0.5]];portConstraint=eastwest;whiteSpace=wrap;html=1;" vertex="1" parent="lt9HKoD3IUiAIHY5lhu4-13">
          <mxGeometry y="82" width="140" height="26" as="geometry" />
        </mxCell>
        <mxCell id="lt9HKoD3IUiAIHY5lhu4-16" value="created at" style="text;strokeColor=none;fillColor=none;align=left;verticalAlign=top;spacingLeft=4;spacingRight=4;overflow=hidden;rotatable=0;points=[[0,0.5],[1,0.5]];portConstraint=eastwest;whiteSpace=wrap;html=1;" vertex="1" parent="lt9HKoD3IUiAIHY5lhu4-13">
          <mxGeometry y="108" width="140" height="26" as="geometry" />
        </mxCell>
        <mxCell id="lt9HKoD3IUiAIHY5lhu4-19" value="" style="edgeStyle=entityRelationEdgeStyle;fontSize=12;html=1;endArrow=ERoneToMany;rounded=0;entryX=0;entryY=0.5;entryDx=0;entryDy=0;exitX=1;exitY=0.5;exitDx=0;exitDy=0;" edge="1" parent="WIyWlLk6GJQsqaUBKTNV-1">
          <mxGeometry width="100" height="100" relative="1" as="geometry">
            <mxPoint x="-686" y="79" as="sourcePoint" />
            <mxPoint x="-139" y="803" as="targetPoint" />
            <Array as="points">
              <mxPoint x="-686" y="80" />
            </Array>
          </mxGeometry>
        </mxCell>
        <mxCell id="lt9HKoD3IUiAIHY5lhu4-20" value="ForeignKey" style="edgeLabel;html=1;align=center;verticalAlign=middle;resizable=0;points=[];" vertex="1" connectable="0" parent="lt9HKoD3IUiAIHY5lhu4-19">
          <mxGeometry x="0.002" y="1" relative="1" as="geometry">
            <mxPoint x="136" y="215" as="offset" />
          </mxGeometry>
        </mxCell>
        <mxCell id="lt9HKoD3IUiAIHY5lhu4-22" value="" style="edgeStyle=entityRelationEdgeStyle;fontSize=12;html=1;endArrow=ERoneToMany;rounded=0;entryX=0;entryY=0.5;entryDx=0;entryDy=0;" edge="1" parent="WIyWlLk6GJQsqaUBKTNV-1" target="lt9HKoD3IUiAIHY5lhu4-21">
          <mxGeometry width="100" height="100" relative="1" as="geometry">
            <mxPoint x="-700" y="350" as="sourcePoint" />
            <mxPoint x="-73" y="1309" as="targetPoint" />
          </mxGeometry>
        </mxCell>
        <mxCell id="lt9HKoD3IUiAIHY5lhu4-23" value="ForeignKey" style="edgeLabel;html=1;align=center;verticalAlign=middle;resizable=0;points=[];" vertex="1" connectable="0" parent="lt9HKoD3IUiAIHY5lhu4-22">
          <mxGeometry x="0.002" y="1" relative="1" as="geometry">
            <mxPoint x="129" y="138" as="offset" />
          </mxGeometry>
        </mxCell>
        <mxCell id="lt9HKoD3IUiAIHY5lhu4-24" value="rating" style="swimlane;fontStyle=0;childLayout=stackLayout;horizontal=1;startSize=30;horizontalStack=0;resizeParent=1;resizeParentMax=0;resizeLast=0;collapsible=1;marginBottom=0;whiteSpace=wrap;html=1;fillColor=#fa6800;fontColor=#000000;strokeColor=#C73500;" vertex="1" parent="WIyWlLk6GJQsqaUBKTNV-1">
          <mxGeometry x="-490" y="760" width="140" height="120" as="geometry" />
        </mxCell>
        <mxCell id="lt9HKoD3IUiAIHY5lhu4-25" value="user" style="text;strokeColor=none;fillColor=none;align=left;verticalAlign=middle;spacingLeft=4;spacingRight=4;overflow=hidden;points=[[0,0.5],[1,0.5]];portConstraint=eastwest;rotatable=0;whiteSpace=wrap;html=1;" vertex="1" parent="lt9HKoD3IUiAIHY5lhu4-24">
          <mxGeometry y="30" width="140" height="30" as="geometry" />
        </mxCell>
        <mxCell id="lt9HKoD3IUiAIHY5lhu4-26" value="anime" style="text;strokeColor=none;fillColor=none;align=left;verticalAlign=middle;spacingLeft=4;spacingRight=4;overflow=hidden;points=[[0,0.5],[1,0.5]];portConstraint=eastwest;rotatable=0;whiteSpace=wrap;html=1;" vertex="1" parent="lt9HKoD3IUiAIHY5lhu4-24">
          <mxGeometry y="60" width="140" height="30" as="geometry" />
        </mxCell>
        <mxCell id="lt9HKoD3IUiAIHY5lhu4-27" value="created at" style="text;strokeColor=none;fillColor=none;align=left;verticalAlign=middle;spacingLeft=4;spacingRight=4;overflow=hidden;points=[[0,0.5],[1,0.5]];portConstraint=eastwest;rotatable=0;whiteSpace=wrap;html=1;" vertex="1" parent="lt9HKoD3IUiAIHY5lhu4-24">
          <mxGeometry y="90" width="140" height="30" as="geometry" />
        </mxCell>
        <mxCell id="lt9HKoD3IUiAIHY5lhu4-28" value="" style="edgeStyle=entityRelationEdgeStyle;fontSize=12;html=1;endArrow=ERoneToMany;rounded=0;entryX=0;entryY=0.5;entryDx=0;entryDy=0;" edge="1" parent="WIyWlLk6GJQsqaUBKTNV-1">
          <mxGeometry width="100" height="100" relative="1" as="geometry">
            <mxPoint x="-680" y="80" as="sourcePoint" />
            <mxPoint x="-490" y="805" as="targetPoint" />
          </mxGeometry>
        </mxCell>
        <mxCell id="lt9HKoD3IUiAIHY5lhu4-29" value="ForeignKey" style="edgeLabel;html=1;align=center;verticalAlign=middle;resizable=0;points=[];" vertex="1" connectable="0" parent="lt9HKoD3IUiAIHY5lhu4-28">
          <mxGeometry x="0.002" y="1" relative="1" as="geometry">
            <mxPoint x="44" y="227" as="offset" />
          </mxGeometry>
        </mxCell>
        <mxCell id="lt9HKoD3IUiAIHY5lhu4-30" value="" style="edgeStyle=entityRelationEdgeStyle;fontSize=12;html=1;endArrow=ERoneToMany;rounded=0;entryX=0;entryY=0.5;entryDx=0;entryDy=0;" edge="1" parent="WIyWlLk6GJQsqaUBKTNV-1" target="lt9HKoD3IUiAIHY5lhu4-26">
          <mxGeometry width="100" height="100" relative="1" as="geometry">
            <mxPoint x="-700" y="350" as="sourcePoint" />
            <mxPoint x="-580" y="780" as="targetPoint" />
            <Array as="points">
              <mxPoint x="-490" y="1050" />
            </Array>
          </mxGeometry>
        </mxCell>
        <mxCell id="lt9HKoD3IUiAIHY5lhu4-31" value="ForeignKey&lt;div&gt;&lt;br&gt;&lt;/div&gt;" style="edgeLabel;html=1;align=center;verticalAlign=middle;resizable=0;points=[];" vertex="1" connectable="0" parent="lt9HKoD3IUiAIHY5lhu4-30">
          <mxGeometry x="0.0705" y="-3" relative="1" as="geometry">
            <mxPoint as="offset" />
          </mxGeometry>
        </mxCell>
      </root>
    </mxGraphModel>
  </diagram>
</mxfile>
